<?xml version="1.0" encoding="UTF-8" standalone="no"?>
<!-- Created with Inkscape (http://www.inkscape.org/) -->

<svg
   width="12.7mm"
   height="12.7mm"
   viewBox="0 0 12.7 12.7"
   version="1.1"
   id="svg1"
   xmlns:inkscape="http://www.inkscape.org/namespaces/inkscape"
   xmlns:sodipodi="http://sodipodi.sourceforge.net/DTD/sodipodi-0.dtd"
   xmlns="http://www.w3.org/2000/svg"
   xmlns:svg="http://www.w3.org/2000/svg">
  <sodipodi:namedview
     id="namedview1"
     pagecolor="#ffffff"
     bordercolor="#000000"
     borderopacity="0.25"
     inkscape:showpageshadow="2"
     inkscape:pageopacity="0.0"
     inkscape:pagecheckerboard="0"
     inkscape:deskcolor="#d1d1d1"
     inkscape:document-units="mm">
    <inkscape:page
       x="0"
       y="0"
       width="12.7"
       height="12.7"
       id="page2"
       margin="0"
       bleed="0" />
  </sodipodi:namedview>
  <defs
     id="defs1" />
  <g
     inkscape:label="Layer 1"
     inkscape:groupmode="layer"
     id="layer1"
     transform="translate(-279.11682,-111.67817)">
    <rect
       style="fill:#ffffff;fill-opacity:0;stroke:none;stroke-width:1.5875;stroke-linecap:round;stroke-linejoin:round;paint-order:stroke fill markers"
       id="rect1"
       width="12.7"
       height="12.7"
       x="279.11682"
       y="111.67817" />
    <g
       id="g26"
       transform="translate(0.02036119,0.07261886)">
      <path
         id="path9"
         style="fill:#ffffff;stroke:#383838;stroke-width:1.13306;stroke-linecap:round;stroke-linejoin:round;stroke-dasharray:none;stroke-opacity:1;paint-order:stroke fill markers"
         d="m 283.78406,115.06444 a 4.3731017,2.3198952 0 0 0 -2.73281,0.51871 v 1.68726 4.23423 a 4.3731017,2.3198952 0 0 1 2.73281,-0.51874 4.3731017,2.3198952 0 0 1 1.69616,0.18223 4.3731017,2.3198952 0 0 1 1.67741,-0.18223 4.3731017,2.3198952 0 0 1 2.68404,0.49348 v -4.20897 -1.71254 a 4.3731017,2.3198952 0 0 0 -2.68404,-0.49343 4.3731017,2.3198952 0 0 0 -1.67741,0.18222 4.3731017,2.3198952 0 0 0 -1.69616,-0.18222 z" />
      <path
         id="path11"
         style="fill:#ffffff;stroke:#383838;stroke-width:1.13306;stroke-linecap:round;stroke-linejoin:round;stroke-dasharray:none;stroke-opacity:1;paint-order:stroke fill markers"
         d="m 283.78406,114.84512 a 4.3731017,2.3198952 0 0 0 -2.73281,0.5187 v 1.68729 4.23423 a 4.3731017,2.3198952 0 0 1 2.73281,-0.51874 4.3731017,2.3198952 0 0 1 1.69616,0.18223 4.3731017,2.3198952 0 0 1 1.67741,-0.18223 4.3731017,2.3198952 0 0 1 2.68404,0.49345 v -4.20894 -1.71255 a 4.3731017,2.3198952 0 0 0 -2.68404,-0.49344 4.3731017,2.3198952 0 0 0 -1.67741,0.18222 4.3731017,2.3198952 0 0 0 -1.69616,-0.18222 z" />
      <path
         id="path12"
         style="fill:#ffffff;stroke:#383838;stroke-width:1.13306;stroke-linecap:round;stroke-linejoin:round;stroke-dasharray:none;stroke-opacity:1;paint-order:stroke fill markers"
         d="m 283.78406,114.6258 a 4.3731017,2.3198952 0 0 0 -2.73281,0.51872 v 1.68725 4.23424 a 4.3731017,2.3198952 0 0 1 2.73281,-0.51873 4.3731017,2.3198952 0 0 1 1.69616,0.18222 4.3731017,2.3198952 0 0 1 1.67741,-0.18222 4.3731017,2.3198952 0 0 1 2.68404,0.49346 v -4.20897 -1.71251 a 4.3731017,2.3198952 0 0 0 -2.68404,-0.49346 4.3731017,2.3198952 0 0 0 -1.67741,0.18221 4.3731017,2.3198952 0 0 0 -1.69616,-0.18221 z" />
      <path
         id="path13"
         style="fill:#ffffff;stroke:#383838;stroke-width:1.13306;stroke-linecap:round;stroke-linejoin:round;stroke-dasharray:none;stroke-opacity:1;paint-order:stroke fill markers"
         d="m 283.78406,114.40649 a 4.3731017,2.3198952 0 0 0 -2.73281,0.51871 v 1.68729 4.2342 a 4.3731017,2.3198952 0 0 1 2.73281,-0.51871 4.3731017,2.3198952 0 0 1 1.69616,0.18222 4.3731017,2.3198952 0 0 1 1.67741,-0.18222 4.3731017,2.3198952 0 0 1 2.68404,0.49344 v -4.20893 -1.71256 a 4.3731017,2.3198952 0 0 0 -2.68404,-0.49344 4.3731017,2.3198952 0 0 0 -1.67741,0.18222 4.3731017,2.3198952 0 0 0 -1.69616,-0.18222 z" />
      <path
         style="fill:#ffffff;stroke:#383838;stroke-width:0.566531;stroke-linecap:round;stroke-linejoin:round;stroke-dasharray:none;stroke-opacity:1;paint-order:stroke fill markers"
         d="m 285.43526,114.53886 c 0,5.96194 0,5.96194 0,5.96194"
         id="path15" />
    </g>
  </g>
</svg>
